# xmcd CD database file
#
# Track frame offsets:
#	150
#	17386
#	34143
#	52958
#	71276
#	89460
#	110442
#	127662
#	145861
#	172009
#	195803
#
# Disc length: 2895 seconds
#
# Revision: 0
# Processed by: cddbd v1.5.2PL0 Copyright (c) Steve Scherf et al.
# Submitted via: Feurio! 1.68 - http://www.feurio.com
#
DISCID=810b4d0b
DTITLE=ADELE - -   21   -
DYEAR=1900
DGENRE=
TTITLE0=Rolling in the Deep
TTITLE1=Rumour Has It
TTITLE2=Turning Tables
TTITLE3=Don't You Remember?
TTITLE4=Set Fire to the Rain
TTITLE5=He Won't Go
TTITLE6=Take It All
TTITLE7=I'll Be Waiting
TTITLE8=One and Only
TTITLE9=Lovesong
TTITLE10=Someone Like You
EXTD=
EXTT0=
EXTT1=
EXTT2=
EXTT3=
EXTT4=
EXTT5=
EXTT6=
EXTT7=
EXTT8=
EXTT9=
EXTT10=
PLAYORDER=
